<svg xmlns="http://www.w3.org/2000/svg" viewBox="0 0 884.4 487.3"><defs><style>.cls-1{font-size:67.35px;fill:#f1c232;font-family:FONTSPRINGDEMO-GrosenMedRegular, FONTSPRING DEMO - Grosen Med;letter-spacing:0.68em;}.cls-2{letter-spacing:0.65em;}.cls-3{fill:#2cba35;}.cls-4{fill:none;stroke:#2cba35;stroke-linecap:round;stroke-linejoin:round;stroke-width:10px;}</style></defs><title>Fichier 4PLAN ELECTRICITE</title><g id="Calque_2" data-name="Calque 2"><g id="Calque_1-2" data-name="Calque 1"><text class="cls-1" transform="translate(249.44 470.47) scale(1.07 1)">SERVI<tspan class="cls-2" x="418.82" y="0">S</tspan><tspan x="501.31" y="0">Y</tspan></text><path class="cls-3" d="M379.6,390.09A65.68,65.68,0,0,1,358,386.55a55.76,55.76,0,0,1-17.87-9.91A38.9,38.9,0,0,1,329,362a7,7,0,0,1,.09-6.9,9.72,9.72,0,0,1,12.56-3.1,10.85,10.85,0,0,1,4.69,5,22.8,22.8,0,0,0,7,8.14,39.9,39.9,0,0,0,11.76,6,45.73,45.73,0,0,0,14.51,2.3,44.77,44.77,0,0,0,15.66-2.66,28,28,0,0,0,11.59-7.69,18.23,18.23,0,0,0,4.42-12.48q0-9.37-7.34-16.8t-24.15-9.21q-21.94-2.12-34.5-12.91T332.72,285q0-11.67,6.54-19.82A40.71,40.71,0,0,1,357,252.79a70.39,70.39,0,0,1,25-4.25,53.88,53.88,0,0,1,18.84,3A44.69,44.69,0,0,1,415,259.87a54.31,54.31,0,0,1,10.44,12.56,11,11,0,0,1,2,7.34,7.26,7.26,0,0,1-3.45,5.4,8.27,8.27,0,0,1-7.25.88,10,10,0,0,1-5.84-4.6,31.67,31.67,0,0,0-6.9-8.67,30.7,30.7,0,0,0-9.55-5.57,37.31,37.31,0,0,0-12.92-2q-13.1-.17-21.94,4.87t-8.85,15.48a20.46,20.46,0,0,0,2.75,10.18q2.73,4.86,10.08,8.4t21.14,4.95q21.06,2.13,32.83,12.83t11.76,28.22a35.31,35.31,0,0,1-4.16,17.52A38.33,38.33,0,0,1,414,380.09a49.39,49.39,0,0,1-15.93,7.52A69,69,0,0,1,379.6,390.09Z"/><path class="cls-3" d="M466.65,388.32a9.07,9.07,0,0,1-9.2-9.2V259.34a8.82,8.82,0,0,1,2.66-6.64,9,9,0,0,1,6.54-2.56h80a9,9,0,0,1,6.54,2.38,8.36,8.36,0,0,1,2.48,6.29,7.83,7.83,0,0,1-2.48,6,9.19,9.19,0,0,1-6.54,2.3H475.85v43h50.78a9,9,0,0,1,6.55,2.39,8.74,8.74,0,0,1,0,12.2,9,9,0,0,1-6.55,2.39H475.85v44.24h70.78a9.19,9.19,0,0,1,6.54,2.3,7.81,7.81,0,0,1,2.48,6,8.32,8.32,0,0,1-2.48,6.28,9,9,0,0,1-6.54,2.39Z"/><path class="cls-3" d="M590.33,388.32a8.6,8.6,0,0,1-6.46-2.65,9.06,9.06,0,0,1-2.57-6.55V259.34a9,9,0,0,1,2.57-6.64,8.75,8.75,0,0,1,6.46-2.56,8.89,8.89,0,0,1,7.08,3.36l77.14,102.62V259.34a8.81,8.81,0,0,1,2.65-6.64,9.05,9.05,0,0,1,6.55-2.56,8.71,8.71,0,0,1,6.55,2.56,9.16,9.16,0,0,1,2.47,6.64V379.12a9.23,9.23,0,0,1-2.47,6.55,8.55,8.55,0,0,1-6.55,2.65,10.43,10.43,0,0,1-3.8-.79,7.63,7.63,0,0,1-3.28-2.39L599.53,282.51v96.61a9.06,9.06,0,0,1-2.57,6.55A8.81,8.81,0,0,1,590.33,388.32Z"/><path class="cls-3" d="M722.67,388.32a8.43,8.43,0,0,1-7.6-4.25,9.11,9.11,0,0,1-.54-9l49.72-118.72q2.65-6.19,8.67-6.19,6.38,0,8.67,6.19l49.9,119.07a9.37,9.37,0,0,1-.62,8.94,8.56,8.56,0,0,1-7.7,4,9.31,9.31,0,0,1-5-1.5,8.55,8.55,0,0,1-3.45-4.16l-43.88-109h5l-44.58,109a9,9,0,0,1-3.63,4.25A9.48,9.48,0,0,1,722.67,388.32Zm9.38-30.43,7.08-15.22h69.36l7.07,15.22Z"/><path class="cls-3" d="M279.07,180.35,249.44,381.17h0c5.75,7.56,19.11,9.53,26.8,3.95h0l29.62-200.81"/><line class="cls-4" x1="5" y1="104.74" x2="308.81" y2="21"/><line class="cls-4" x1="5" y1="104.74" x2="575.66" y2="187.86"/><line class="cls-4" x1="575.7" y1="187.59" x2="308.81" y2="21"/><path class="cls-4" d="M562.11,215.7l13.59-28.11Z"/><polyline class="cls-4" points="5 104.74 10.08 134.27 5 104.74"/><path class="cls-4" d="M10.08,134.27,16,136.19a413.22,413.22,0,0,0,135.1,20.23l8.17-.15,9.49-28.44L308.81,21,412.09,163.73l.87,30,12.72,3.92A412.76,412.76,0,0,0,562.11,215.7h0"/><circle class="cls-4" cx="309.99" cy="13.04" r="8.04"/><path class="cls-4" d="M401.84,192.06l-1.32-.05a1070.84,1070.84,0,0,1-228.85-33.9h0l-2.95-30.28,243.37,35.9Z"/></g></g></svg>